<?xml version="1.0" encoding="UTF-8" standalone="no"?>
<!-- Created with Inkscape (http://www.inkscape.org/) -->

<svg
   xmlns:dc="http://purl.org/dc/elements/1.1/"
   xmlns:cc="http://creativecommons.org/ns#"
   xmlns:rdf="http://www.w3.org/1999/02/22-rdf-syntax-ns#"
   xmlns:svg="http://www.w3.org/2000/svg"
   xmlns="http://www.w3.org/2000/svg"
   xmlns:sodipodi="http://sodipodi.sourceforge.net/DTD/sodipodi-0.dtd"
   xmlns:inkscape="http://www.inkscape.org/namespaces/inkscape"
   width="11.492821mm"
   height="11.209466mm"
   viewBox="0 0 11.492821 11.209466"
   version="1.1"
   id="svg1043"
   inkscape:version="0.92.4 (5da689c313, 2019-01-14)"
   sodipodi:docname="github.svg">
  <defs
     id="defs1037" />
  <sodipodi:namedview
     id="base"
     pagecolor="#ffffff"
     bordercolor="#666666"
     borderopacity="1.0"
     inkscape:pageopacity="0.0"
     inkscape:pageshadow="2"
     inkscape:zoom="1.4"
     inkscape:cx="-49.397416"
     inkscape:cy="-88.29092"
     inkscape:document-units="mm"
     inkscape:current-layer="layer1"
     showgrid="false"
     fit-margin-top="0"
     fit-margin-left="0"
     fit-margin-right="0"
     fit-margin-bottom="0"
     inkscape:window-width="1920"
     inkscape:window-height="1061"
     inkscape:window-x="0"
     inkscape:window-y="0"
     inkscape:window-maximized="0" />
  <metadata
     id="metadata1040">
    <rdf:RDF>
      <cc:Work
         rdf:about="">
        <dc:format>image/svg+xml</dc:format>
        <dc:type
           rdf:resource="http://purl.org/dc/dcmitype/StillImage" />
        <dc:title></dc:title>
      </cc:Work>
    </rdf:RDF>
  </metadata>
  <g
     inkscape:label="Layer 1"
     inkscape:groupmode="layer"
     id="layer1"
     transform="translate(-91.015329,-106.94289)">
    <path
       d="m 96.761376,106.94289 c -3.172887,0 -5.746047,2.57281 -5.746047,5.74675 0,2.53859 1.64642,4.69265 3.92995,5.45289 0.28751,0.0526 0.39229,-0.12489 0.39229,-0.27729 0,-0.13652 -0.005,-0.49777 -0.008,-0.97719 -1.59844,0.34713 -1.9357,-0.77047 -1.9357,-0.77047 -0.2614,-0.66393 -0.63817,-0.84067 -0.63817,-0.84067 -0.52176,-0.3563 0.0395,-0.34925 0.0395,-0.34925 0.57679,0.0406 0.88018,0.59232 0.88018,0.59232 0.51259,0.87806 1.34514,0.62441 1.67252,0.4773 0.0522,-0.37112 0.20073,-0.62441 0.36477,-0.76799 -1.276,-0.14535 -2.61761,-0.63818 -2.61761,-2.84022 0,-0.62759 0.22401,-1.14017 0.59161,-1.54199 -0.0593,-0.14534 -0.25647,-0.72954 0.0564,-1.52082 0,0 0.48225,-0.15452 1.5801,0.58878 0.45825,-0.12735 0.95003,-0.19085 1.438623,-0.19332 0.488245,0.002 0.979664,0.066 1.438628,0.19332 1.097139,-0.7433 1.57868,-0.58878 1.57868,-0.58878 0.31362,0.79128 0.116417,1.37548 0.0575,1.52082 0.3683,0.40182 0.59055,0.9144 0.59055,1.54199 0,2.20769 -1.34373,2.69346 -2.623608,2.83563 0.206022,0.17745 0.389819,0.52811 0.389819,1.06433 0,0.768 -0.0071,1.38783 -0.0071,1.57621 0,0.15381 0.103717,0.33267 0.395112,0.27658 2.281767,-0.76165 3.926777,-2.91394 3.926777,-5.45218 0,-3.17394 -2.573166,-5.74675 -5.747107,-5.74675"
       style="fill:#1b1817;fill-opacity:1;fill-rule:evenodd;stroke:none;stroke-width:0.03527778"
       id="path848"
       inkscape:connector-curvature="0" />
  </g>
</svg>
